# xmcd
#
# Track frame offsets: 
#        150
#        13104
#        24498
#        35550
#        47194
#        61283
#        75735
#        86857
#        98696
#        110967
#        122486
#        135064
#
# Disc length: 1965 seconds
#
# Revision: 0
# Processed by: cddbd v1.5.2PL0 Copyright (c) Steve Scherf et al.
# Submitted via: ExactAudioCopyFreeDBPlugin 1.0
#
DISCID=9707ab0c
DTITLE=Lil' Son Jackson - Lil' Son Jackson
DYEAR=1962
DGENRE=Blues
TTITLE0=Time changes Things
TTITLE1=Rockin and Rollin
TTITLE2=Two timin Woman
TTITLE3=Rocky Road
TTITLE4=New Years Resolution
TTITLE5=Young Woman Blues
TTITLE6=Everybodys Blue
TTITLE7=Travelin N' Woman
TTITLE8=Aching Heart
TTITLE9=Mr. Blues
TTITLE10=Restless Blues
TTITLE11=Wondering Blues
EXTD=
EXTT0=
EXTT1=
EXTT2=
EXTT3=
EXTT4=
EXTT5=
EXTT6=
EXTT7=
EXTT8=
EXTT9=
EXTT10=
EXTT11=
PLAYORDER=
